



Real love and fate collide in a small town girl's life as Amy falls in love with a mysterious drifter who brings with him a family curse and the unimaginable horror that follows. Bender, who shares the curse with his son, brings hell to Amy's small town. As Dan and Amy's love is put to the test, Thibodeaux, an ex-cop from another city who has witnessed Bender's lust for blood firsthand, Sam, the local sheriff and an ex homicide detective, and John, a local farmer and Amy's father, head for the ultimate showdown with Bender and the evil web of terror that he has drawn them all into.





 
General
Complete name                    : Dark Moon Rising 2009 DVDRip GoGoDark Moon Rising 2009 DVDRip GoGo.avi
IMDB Link                        :[url]http://www.imdb.com/title/tt1231593/[/url]
Format                           : AVI
Format/Info                      : Audio Video Interleave
File size                        : 800 MiB
Duration                         : 2h 4mn
Overall bit rate                 : 896 Kbps
Writing application              : VirtualDubMod 1.5.4.1 (build 2178/release)
Writing library                  : VirtualDubMod build 2178/release

Video
ID                               : 0
Format                           : MPEG-4 Visual
Format profile                   : Advanced Simple@L5
Format settings, BVOP            : Yes
Format settings, QPel            : No
Format settings, GMC             : No warppoints
Format settings, Matrix          : Custom
Codec ID                         : XVID
Codec ID/Hint                    : XviD
Duration                         : 2h 4mn
Bit rate                         : 768 Kbps
Width                            : 672 pixels
Height                           : 368 pixels
Display aspect ratio             : 16:9
Frame rate                       : 23.976 fps
Color space                      : YUV
Chroma subsampling               : 4:2:0
Bit depth                        : 8 bits
Scan type                        : Progressive
Bits/(Pixel*Frame)               : 0.129
Stream size                      : 686 MiB (86%)
Writing library                  : XviD 1.2.1 (UTC 2008-12-04)

Audio
ID                               : 1
Format                           : MPEG Audio
Format version                   : Version 1
Format profile                   : Layer 3
Mode                             : Joint stereo
Mode extension                   : MS Stereo
Codec ID                         : 55
Codec ID/Hint                    : MP3
Duration                         : 2h 4mn
Bit rate mode                    : Variable
Bit rate                         : 116 Kbps
Nominal bit rate                 : 128 Kbps
Channel(s)                       : 2 channels
Sampling rate                    : 48.0 KHz
Stream size                      : 103 MiB (13%)
Alignment                        : Aligned on interleaves
Interleave, duration             : 24 ms (0.58 video frame)
Interleave, preload duration     : 159 ms
Writing library                  : LAME3.98r
Encoding settings                : -m j -V 4 -q 2 -lowpass 17 --abr 128
Language                         : English
Subtitles                        : None
Genre                            : Crime | Horror | Romance | Thriller

[img]http://imgboot.com/images/fasamoo/pleaseseed.gif[/img]